<?xml version="1.0" encoding="utf-8"?>
<!-- Generator: Adobe Illustrator 18.1.1, SVG Export Plug-In . SVG Version: 6.00 Build 0)  -->
<svg version="1.1" xmlns="http://www.w3.org/2000/svg" xmlns:xlink="http://www.w3.org/1999/xlink" x="0px" y="0px"
	 viewBox="0 0 595.3 841.9" enable-background="new 0 0 595.3 841.9" xml:space="preserve">
<g id="Ebene_1">
	<path fill="#E85B22" d="M317.3,427.2c-4.1-4.6-9-7.1-14.6-7.5c-0.1,0-0.1,0-0.2,0c-0.5,0-1-0.1-1.6-0.1v0c0,0,0,0,0,0l0,0h0h-9.2
		h-3.5h-3.8h-3.5h-9.2h0l0,0c0,0,0,0,0,0v0c-0.5,0-1,0-1.6,0.1c-0.1,0-0.1,0-0.2,0c-5.6,0.4-10.5,2.9-14.6,7.5
		c-4.5,5.1-6.8,11.2-6.9,18.3v24.9h5.2l0.1-23.9c0-6.4,1.8-11.5,5.4-15.5c2.7-3.1,5.9-4.9,9.5-5.6l0,0c1-0.2,2-0.3,3.1-0.3v0l14.1,0
		l0,0l0.6,0l0.6,0l0,0l14.1,0v0c1.1,0,2.1,0.1,3.1,0.3l0,0c3.6,0.7,6.8,2.5,9.5,5.6c3.5,4,5.3,9.1,5.4,15.5l0.1,23.9h5.2v-24.9
		C324,438.4,321.8,432.3,317.3,427.2z"/>
	<path fill="#E85B22" d="M129.6,438.5c-0.9,2.2-1.3,4.4-1.3,6.5c0.2,5.6,2.2,10.4,6.2,14.3c4,3.9,8.7,6,14.3,6.1
		c4.4-0.1,8.4-1.5,11.9-4.1c3.5-2.6,6-6.1,7.5-10.5h5.7c-1.7,6.2-4.9,11.1-9.4,14.6c-4.6,3.6-9.8,5.4-15.7,5.4
		c-7.1,0-13.2-2.5-18.3-7.5c-5-5.1-7.5-11.1-7.5-18.3c0-7.1,2.5-13.2,7.5-18.2c5.1-5,11.1-7.5,18.3-7.5c5.9,0,11.2,1.8,15.9,5.5
		c4.6,3.6,7.6,8.2,9.1,13.7L129.6,438.5z M165.5,433.5c-0.9-1.7-2.6-3.4-5.1-5.2c-3.5-2.5-7.4-3.7-11.7-3.7c-5.4,0-10,1.8-13.8,5.4
		c-1.5,1.4-2.5,2.6-3,3.5H165.5z"/>
	<path fill="#E85B22" d="M173,419.2h6.2l21,39.6l20.8-39.6h6.4l-23.9,45.5v0l-3.3,6.1l-3-5.8L173,419.2z"/>
	<path fill="#E85B22" d="M239.4,470.4h-5.3v-50.7h5.3V470.4z"/>
	<path fill="#E85B22" d="M336.9,438.5c-0.9,2.2-1.3,4.4-1.3,6.5c0.2,5.6,2.2,10.4,6.2,14.3c4,3.9,8.7,6,14.3,6.1
		c4.4-0.1,8.4-1.5,11.9-4.1c3.5-2.6,6-6.1,7.5-10.5h5.7c-1.7,6.2-4.9,11.1-9.4,14.6c-4.6,3.6-9.8,5.4-15.7,5.4
		c-7.1,0-13.2-2.5-18.3-7.5c-5-5.1-7.5-11.1-7.5-18.3c0-7.1,2.5-13.2,7.5-18.2c5.1-5,11.1-7.5,18.3-7.5c5.9,0,11.2,1.8,15.9,5.5
		c4.6,3.6,7.6,8.2,9.1,13.7L336.9,438.5z M372.9,433.5c-0.9-1.7-2.6-3.4-5.1-5.2c-3.5-2.5-7.4-3.7-11.7-3.7c-5.4,0-10,1.8-13.8,5.4
		c-1.5,1.4-2.5,2.6-3,3.5H372.9z"/>
	<path fill="#E85B22" d="M394,438.5c-0.9,2.2-1.3,4.4-1.3,6.5c0.2,5.6,2.2,10.4,6.2,14.3c4,3.9,8.7,6,14.3,6.1
		c4.4-0.1,8.4-1.5,11.9-4.1c3.5-2.6,6-6.1,7.5-10.5h5.7c-1.7,6.2-4.9,11.1-9.4,14.6c-4.6,3.6-9.8,5.4-15.7,5.4
		c-7.1,0-13.2-2.5-18.3-7.5c-5-5.1-7.5-11.1-7.5-18.3c0-7.1,2.5-13.2,7.5-18.2c5.1-5,11.1-7.5,18.3-7.5c5.9,0,11.2,1.8,15.9,5.5
		c4.6,3.6,7.6,8.2,9.1,13.7L394,438.5z M429.9,433.5c-0.9-1.7-2.6-3.4-5.1-5.2c-3.5-2.5-7.4-3.7-11.7-3.7c-5.4,0-10,1.8-13.8,5.4
		c-1.5,1.4-2.5,2.6-3,3.5H429.9z"/>
	<path fill="#E85B22" d="M466.4,425.2c-4.9,0-9.1,2-12.6,5.9c-3.5,4-5.3,9.1-5.4,15.5l-0.1,23.9h-5.2v-24.9
		c0.1-7.2,2.4-13.3,6.9-18.3c4.5-5.1,10-7.6,16.3-7.6"/>
</g>
<g id="Ebene_2">
</g>
</svg>
