<?xml version="1.0" encoding="UTF-8" standalone="no"?>
<svg
   xmlns:dc="http://purl.org/dc/elements/1.1/"
   xmlns:cc="http://creativecommons.org/ns#"
   xmlns:rdf="http://www.w3.org/1999/02/22-rdf-syntax-ns#"
   xmlns:svg="http://www.w3.org/2000/svg"
   xmlns="http://www.w3.org/2000/svg"
   viewBox="0 0 582.12 203.36"
   height="203.36"
   width="582.12"
   xml:space="preserve"
   id="svg2"
   version="1.1"><metadata
     id="metadata8"><rdf:RDF><cc:Work
         rdf:about=""><dc:format>image/svg+xml</dc:format><dc:type
           rdf:resource="http://purl.org/dc/dcmitype/StillImage" /></cc:Work></rdf:RDF></metadata><defs
     id="defs6"><clipPath
       id="clipPath20"
       clipPathUnits="userSpaceOnUse"><path
         id="path18"
         d="M 0,0 H 4365.91 V 1525 H 0 Z" /></clipPath></defs><g
     transform="matrix(1.3333333,0,0,-1.3333333,0,203.36)"
     id="g10"><g
       transform="scale(0.1)"
       id="g12"><g
         id="g14"><g
           clip-path="url(#clipPath20)"
           id="g16"><path
             id="path22"
             style="fill:#ed5027;fill-opacity:1;fill-rule:nonzero;stroke:none"
             d="m 2874.4,436.48 c -41.06,46.008 -89.62,71.122 -145.63,75.461 -0.72,0.059 -1.43,0.118 -2.15,0.168 -5.14,0.352 -10.33,0.59 -15.59,0.59 v -0.008 c -0.02,0 -0.04,0 -0.05,0 v 0.008 h -293.17 v -0.008 c -0.01,0 -0.03,0 -0.04,0 v 0.008 c -5.27,0 -10.45,-0.238 -15.6,-0.59 -0.72,-0.05 -1.43,-0.109 -2.15,-0.168 -56.01,-4.339 -104.57,-29.453 -145.63,-75.461 -44.89,-50.589 -67.79,-111.66 -68.7,-183.21 V 4.10156 h 51.61 l 0.68,238.57844 c 0.46,63.57 18.34,115.179 53.67,154.832 27.29,30.859 59.05,49.457 95.14,56.168 l 0.03,-0.051 c 10.1,1.891 20.49,3.012 31.28,3.012 v 0.148 l 140.62,-0.027 h 11.35 v 0 l 140.62,0.027 v -0.148 c 10.79,0 21.18,-1.121 31.28,-3.012 l 0.03,0.051 c 36.09,-6.711 67.85,-25.309 95.14,-56.168 35.33,-39.653 53.21,-91.262 53.67,-154.832 l 0.68,-238.57844 h 51.61 V 253.27 c -0.91,71.55 -23.81,132.621 -68.7,183.21" /><path
             id="path24"
             style="fill:#ed5027;fill-opacity:1;fill-rule:nonzero;stroke:none"
             d="m 1356.65,374.102 c -8.89,16.628 -25.76,33.949 -50.59,51.949 -34.64,24.609 -73.6,36.918 -116.89,36.918 -54.01,0 -100.15,-18.117 -138.43,-54.348 -15.27,-14.351 -25.18,-25.859 -29.74,-34.519 z m -359.232,-50.59 c -8.66,-21.871 -12.988,-43.524 -12.988,-64.942 1.593,-55.832 22.1,-103.558 61.52,-143.211 39.65,-39.4176 87.39,-59.8199 143.22,-61.1793 43.97,1.3594 83.74,15.0391 119.28,41.0117 34.87,25.5196 59.7,60.6096 74.52,105.2776 h 57.42 C 1423.07,138.262 1391.62,89.6094 1346.05,54.5195 1300.02,18.7383 1247.73,0.859375 1189.17,0.859375 c -71.1,0 -131.94,25.062525 -182.52,75.191425 -50.134,50.5902 -75.197,111.4292 -75.197,182.5192 0,70.871 25.063,131.59 75.197,182.18 50.58,50.129 111.42,75.199 182.52,75.199 59.47,0 112.45,-18.347 158.93,-55.027 46.03,-36.231 76.22,-81.922 90.58,-137.063 l -441.262,-0.347" /><path
             id="path26"
             style="fill:#ed5027;fill-opacity:1;fill-rule:nonzero;stroke:none"
             d="m 1431.83,516.801 h 61.87 l 209.52,-396.141 207.81,396.141 h 63.92 L 1736.03,61.5312 V 61.1797 L 1702.88,0 1672.46,58.1094 1431.83,516.801" /><path
             id="path28"
             style="fill:#ed5027;fill-opacity:1;fill-rule:nonzero;stroke:none"
             d="m 2043.15,4.78906 h 52.9805 v 507.223 H 2043.15 Z" /><path
             id="path30"
             style="fill:#ed5027;fill-opacity:1;fill-rule:nonzero;stroke:none"
             d="m 3430.27,374.102 c -8.89,16.628 -25.76,33.949 -50.59,51.949 -34.64,24.609 -73.6,36.918 -116.9,36.918 -54,0 -100.14,-18.117 -138.42,-54.348 -15.27,-14.351 -25.18,-25.859 -29.74,-34.519 z m -359.23,-50.59 c -8.67,-21.871 -12.99,-43.524 -12.99,-64.942 1.59,-55.832 22.1,-103.558 61.52,-143.211 39.65,-39.4176 87.38,-59.8199 143.21,-61.1793 43.98,1.3594 83.74,15.0391 119.29,41.0117 34.87,25.5196 59.7,60.6096 74.51,105.2776 h 57.43 C 3496.69,138.262 3465.25,89.6094 3419.67,54.5195 3373.64,18.7383 3321.35,0.859375 3262.78,0.859375 c -71.09,0 -131.93,25.062525 -182.51,75.191425 -50.13,50.5902 -75.2,111.4292 -75.2,182.5192 0,70.871 25.07,131.59 75.2,182.18 50.58,50.129 111.42,75.199 182.51,75.199 59.48,0 112.46,-18.347 158.94,-55.027 46.03,-36.231 76.22,-81.922 90.58,-137.063 l -441.26,-0.347" /><path
             id="path32"
             style="fill:#ed5027;fill-opacity:1;fill-rule:nonzero;stroke:none"
             d="m 4000.65,374.102 c -8.89,16.628 -25.76,33.949 -50.59,51.949 -34.64,24.609 -73.6,36.918 -116.89,36.918 -54.01,0 -100.15,-18.117 -138.43,-54.348 -15.27,-14.351 -25.18,-25.859 -29.74,-34.519 z m -359.23,-50.59 c -8.66,-21.871 -12.99,-43.524 -12.99,-64.942 1.59,-55.832 22.1,-103.558 61.52,-143.211 39.65,-39.4176 87.39,-59.8199 143.22,-61.1793 43.97,1.3594 83.74,15.0391 119.28,41.0117 34.87,25.5196 59.7,60.6096 74.51,105.2776 h 57.43 C 4067.06,138.262 4035.62,89.6094 3990.05,54.5195 3944.02,18.7383 3891.72,0.859375 3833.17,0.859375 c -71.1,0 -131.94,25.062525 -182.52,75.191425 -50.13,50.5902 -75.2,111.4292 -75.2,182.5192 0,70.871 25.07,131.59 75.2,182.18 50.58,50.129 111.42,75.199 182.52,75.199 59.47,0 112.45,-18.347 158.93,-55.027 46.03,-36.231 76.22,-81.922 90.58,-137.063 l -441.26,-0.347" /><path
             id="path34"
             style="fill:#ed5027;fill-opacity:1;fill-rule:nonzero;stroke:none"
             d="m 4365.91,456.641 c -49.22,0 -91.26,-19.711 -126.12,-59.129 -35.32,-39.653 -53.21,-91.262 -53.66,-154.832 L 4185.44,4.10156 h -51.61 V 253.27 c 0.91,71.55 23.81,132.621 68.7,183.21 45.34,50.809 99.81,76.219 163.38,76.219" /><path
             id="path36"
             style="fill:#d3d2d2;fill-opacity:1;fill-rule:nonzero;stroke:none"
             d="M 511.621,1525.19 C 229.059,1525.19 0,1296.13 0,1013.57 0,898.387 38.082,792.105 102.316,706.598 L 535.039,102.039 920.926,706.598 c 64.234,85.507 102.314,191.789 102.314,306.972 0,282.56 -229.056,511.62 -511.619,511.62" /><path
             id="path38"
             style="fill:#bbbaba;fill-opacity:1;fill-rule:nonzero;stroke:none"
             d="m 511.621,1525.19 c -7.625,0 -15.187,-0.24 -22.73,-0.58 144.242,-163.12 233.222,-385.76 233.222,-631.383 0,-266.957 -104.992,-506.875 -271.949,-672.606 l 84.875,-118.582 385.887,604.559 c 64.234,85.511 102.314,191.789 102.314,306.972 0,282.56 -229.056,511.62 -511.619,511.62" /><path
             id="path40"
             style="fill:#ffffff;fill-opacity:1;fill-rule:nonzero;stroke:none"
             d="m 507.629,1413.57 c -223.027,0 -403.824,-180.79 -403.824,-403.82 0,-90.914 30.058,-174.797 80.761,-242.293 L 526.113,290.281 830.691,767.457 c 50.704,67.496 80.762,151.379 80.762,242.293 0,223.03 -180.801,403.82 -403.824,403.82" /><path
             id="path42"
             style="fill:#ed5027;fill-opacity:1;fill-rule:nonzero;stroke:none"
             d="m 753.598,1216.04 c -32.61,36.54 -71.18,56.48 -115.664,59.93 -0.571,0.05 -1.137,0.1 -1.711,0.14 -4.082,0.27 -8.2,0.46 -12.383,0.46 v -0.01 c -0.012,0 -0.024,0 -0.035,0 v 0.01 H 390.961 l -0.004,-0.01 c -0.012,0 -0.023,0 -0.035,0 v 0.01 c -4.184,0 -8.301,-0.19 -12.387,-0.46 -0.57,-0.04 -1.137,-0.09 -1.707,-0.14 -44.48,-3.45 -83.055,-23.39 -115.664,-59.93 -35.656,-40.18 -53.844,-88.68 -54.566,-145.51 V 872.629 h 40.992 l 0.543,189.481 c 0.359,50.5 14.566,91.49 42.621,122.98 21.676,24.51 46.898,39.28 75.562,44.61 l 0.028,-0.04 c 8.023,1.5 16.269,2.39 24.844,2.39 v 0.12 l 111.687,-0.02 v -0.01 h 9.012 v 0.01 l 111.687,0.02 v -0.12 c 8.571,0 16.821,-0.89 24.844,-2.39 l 0.027,0.04 c 28.664,-5.33 53.887,-20.1 75.563,-44.61 28.054,-31.49 42.262,-72.48 42.621,-122.98 l 0.543,-189.481 h 40.992 v 197.901 c -0.723,56.83 -18.91,105.33 -54.566,145.51" /><path
             id="path44"
             style="fill:#6e6b6c;fill-opacity:1;fill-rule:nonzero;stroke:none"
             d="M 669.953,146.039 C 669.953,67.4102 606.219,3.67188 527.59,3.67188 c -78.625,0 -142.363,63.73832 -142.363,142.36712 0,78.621 63.738,142.359 142.363,142.359 78.629,0 142.363,-63.738 142.363,-142.359" /><path
             id="path46"
             style="fill:#ffffff;fill-opacity:1;fill-rule:nonzero;stroke:none"
             d="m 525.113,252.211 c -8.187,12.527 -34.226,10.019 -58.152,-5.609 -23.93,-15.633 -36.688,-38.473 -28.5,-51 8.187,-12.543 34.223,-10.024 58.152,5.609 23.93,15.629 36.688,38.461 28.5,51" /><path
             id="path48"
             style="fill:#5e5b5c;fill-opacity:1;fill-rule:nonzero;stroke:none"
             d="m 627.176,247.691 c 3.73,-12.41 5.918,-25.363 5.918,-38.793 0,-84.57 -78.789,-153.1285 -175.973,-153.1285 -14.945,0 -29.375,1.8008 -43.23,4.8516 25.976,-34.5195 67.168,-56.94922 113.699,-56.94922 78.629,0 142.367,63.73832 142.367,142.36712 0,39.84 -16.406,75.813 -42.781,101.652" /></g></g></g></g></svg>