<?xml version="1.0" encoding="utf-8"?>
<!-- Generator: Adobe Illustrator 18.1.1, SVG Export Plug-In . SVG Version: 6.00 Build 0)  -->
<svg version="1.1" xmlns="http://www.w3.org/2000/svg" xmlns:xlink="http://www.w3.org/1999/xlink" x="0px" y="0px"
	 viewBox="0 0 595.3 841.9" enable-background="new 0 0 595.3 841.9" xml:space="preserve">
<g id="Ebene_1">
	<path fill="#DADADA" d="M294.5,264.2c-59.6,0-108,48.3-108,108c0,24.3,8,46.7,21.6,64.8l91.3,127.6L380.9,437
		c13.6-18,21.6-40.5,21.6-64.8C402.5,312.6,354.1,264.2,294.5,264.2z M361.9,424.2l-64.3,100.7l-72.1-100.7
		c-10.7-14.2-17-32-17-51.1c0-47.1,38.2-85.2,85.2-85.2c47.1,0,85.2,38.2,85.2,85.2C378.9,392.2,372.6,409.9,361.9,424.2z"/>
	<path fill="#C4C4C4" d="M294.5,264.2c-1.6,0-3.2,0.1-4.8,0.1c6.8,7.6,12.9,15.9,18.5,24.7c40.2,6.9,70.7,41.9,70.7,84
		c0,19.2-6.3,36.9-17,51.1l-64.3,100.7l-1.3-1.8c-4.6,5.8-9.5,11.3-14.7,16.5l17.9,25L380.9,437c13.6-18,21.6-40.5,21.6-64.8
		C402.5,312.6,354.1,264.2,294.5,264.2z"/>
	<path fill="#E85B22" d="M345.6,329.5c-6.9-7.7-15-11.9-24.4-12.7c-0.1,0-0.2,0-0.4,0c-0.9-0.1-1.7-0.1-2.6-0.1v0c0,0,0,0,0,0l0,0
		h-0.1h-15.5h-5.9h-6.3h-5.9h-15.5H269l0,0c0,0,0,0,0,0v0c-0.9,0-1.8,0-2.6,0.1c-0.1,0-0.2,0-0.4,0c-9.4,0.7-17.5,4.9-24.4,12.7
		c-7.5,8.5-11.4,18.7-11.5,30.7V402h8.7l0.1-40c0.1-10.7,3.1-19.3,9-26c4.6-5.2,9.9-8.3,15.9-9.4l0,0c1.7-0.3,3.4-0.5,5.2-0.5v0
		l23.6,0l0,0l1,0l1,0l0,0l23.6,0v0c1.8,0,3.6,0.2,5.2,0.5l0,0c6.1,1.1,11.4,4.2,15.9,9.4c5.9,6.6,8.9,15.3,9,26l0.1,40h8.7v-41.8
		C356.9,348.2,353.1,338,345.6,329.5z"/>
	<circle fill="#797979" cx="297.9" cy="555.3" r="30"/>
	
		<ellipse transform="matrix(0.8372 -0.5469 0.5469 0.8372 -247.8066 245.3674)" fill="#FFFFFF" cx="288.2" cy="538.9" rx="10.9" ry="5.7"/>
	<path fill="#686867" d="M318.9,533.9c0.8,2.6,1.2,5.4,1.2,8.2c0,17.9-16.6,32.3-37.1,32.3c-3.2,0-6.2-0.4-9.1-1
		c5.5,7.3,14.2,12,24,12c16.6,0,30-13.5,30-30C327.9,546.9,324.5,539.3,318.9,533.9z"/>
</g>
<g id="Ebene_2">
</g>
</svg>
